<?xml version="1.0" encoding="UTF-8"?>
<svg id="Layer_2" data-name="Layer 2" xmlns="http://www.w3.org/2000/svg" viewBox="0 0 738.206 507.494">
  <defs>
    <style>
      .cls-1 {
        fill: #fff;
      }
    </style>
  </defs>
  <path class="cls-1" d="M30.164,507.494h-12.982l-1.809-1.142c-10.083-1.349-16.085-9.815-15.305-20,2.398-11.563,6.377-22.421,12.17-32.847,10.163-18.291,21.362-35.07,34.378-51.711-.773-31.863,26.283-56.836,57.821-53.695,11.183-10.68,22.436-20.114,34.786-28.185l-28.228,29.206c12.936,3.642,25.37,9.827,32.204,21.695-22.637-22.757-58.63-23.89-80.43-.234,12.252-6.695,24.57-9.763,37.425-5.272,19.203,6.709,28.49,28.863,18.301,41.653-12.543,15.744-29.377,26.591-48.716,32.254-2.431.329-5.905-.17-7.497-1.707-8.022-7.746-12.23-16.735-15.045-27.847-8.224,11.585-15.491,22.118-22.015,33.852-6.922,12.45-12.186,25.153-3.349,34.865,3.094,3.4,8.372,4.753,13.36,4.105,15.764-2.049,30.281-7.193,44.149-14.714,17.087-8.169,30.868-19.657,45.534-31.389,16.558-13.245,29.185-28.241,42.393-45.212-21.542,42.951-75.662,93.12-118.759,110.745-6.103,2.496-12.368,4.161-18.387,5.58Z"/>
  <polygon class="cls-1" points="185.159 364.474 182.043 351.929 168.785 348.81 181.924 345.63 185.23 332.39 188.466 345.704 201.286 348.768 188.336 351.847 185.159 364.474"/>
  <path class="cls-1" d="M155.993,263.494h.999c.472,12.54,1.378,24.712,2.865,38.064l38.295,3.389-38.371,3.244-3.429,38.539-3.106-34.355c-.236-2.61-1.759-4.498-4.331-4.673l-34.067-2.74,37.926-3.473,3.219-37.995Z"/>
  <g>
    <polygon class="cls-1" points="738.206 386.494 738.201 398.494 710.235 398.248 710.244 454.356 698.147 454.34 698.096 398.257 670.004 398.229 670.19 385.995 738.206 386.494"/>
    <path class="cls-1" d="M309.229,422.826l-.089,12.399c-.035,4.883,3.404,6.819,7.704,6.815l48.218-.049.119,12.29-50.285-.095c-10.349-.02-17.761-8.94-17.757-18.699l.012-30.871c.004-11.248,8.625-18.873,19.665-18.848l48.341.111.019,12.245-50.529.013c-2.019,0-5.232,2.87-5.291,4.709l-.25,7.709,43.993.068-.091,12.222-43.777-.017Z"/>
    <path class="cls-1" d="M531.75,422.825l-.023,12.53c-.009,4.826,3.578,6.701,7.718,6.695l48.242-.063-.043,12.309-50.187-.097c-8.83-.017-17.548-7.686-17.55-16.705l-.008-34.873c-.002-9.131,8.732-16.705,17.718-16.724l50.008-.105.16,12.333-50.449.002c-1.96,0-5.354,2.724-5.407,4.464l-.241,7.983,43.886.006.044,12.264-43.869-.019Z"/>
    <path class="cls-1" d="M236.515,422.984l.015,31.396-12.112-.044.018-43.635,42.499.026c3.377.002,5.945-2.018,6.697-5.006.605-2.404-1.407-7.391-4.677-7.395l-32.097-.043-11.787-12.15,41.842-.18c10.051-.085,18.084,7.409,18.811,17.07.711,9.453-5.745,18.242-15.839,19.733l15.842,31.592-13.596-.024-12.149-23.929c-2.269-4.468-6.024-7.473-11.357-7.453l-12.109.044Z"/>
    <path class="cls-1" d="M434.709,410.71l-.033,12.142-43.877-.03-.007,31.433-12.019.003.114-50.842c.02-8.973,8.037-17.405,17.121-17.435l50.933-.167.009,12.311-50.413.005c-1.977,0-5.37,2.726-5.42,4.459l-.233,8.105,43.825.016Z"/>
    <path class="cls-1" d="M627.342,442.099l33.13-.117.089,12.27-35.194-.121c-18.867-.065-33.137-16.277-33.056-34.167.085-18.821,15.312-34.048,34.401-34.089l33.735-.072.119,12.363-33.261-.109c-12.704-.042-22.642,9.357-22.801,21.869-.159,12.433,9.956,22.22,22.838,22.175Z"/>
    <path class="cls-1" d="M512.922,442.099l.276,12.301-36.59-.253c-11.779-.082-19.84-11.389-19.822-22.543l.071-45.606,12.184.152.039,46.999c.004,5.117,4.622,8.906,9.466,9.002l34.377-.051Z"/>
  </g>
</svg>