<svg version="1.1" id="Layer_1" xmlns="http://www.w3.org/2000/svg" xmlns:xlink="http://www.w3.org/1999/xlink" x="0px" y="0px"
	 width="100%" viewBox="0 0 500 165" enable-background="new 0 0 500 165" xml:space="preserve">
<path fill="#000000" opacity="1.000000" stroke="none" 
	d="
M501.000000,93.000000 
	C501.000000,117.313713 501.000000,141.627426 501.000000,166.000000 
	C344.645782,166.000000 188.291550,166.000000 31.616470,165.693085 
	C32.809708,164.421127 34.295483,163.407867 35.842640,162.499115 
	C43.721500,157.871399 51.956436,153.761124 59.441624,148.568619 
	C81.878326,133.004181 100.453651,113.677376 114.293526,90.002441 
	C115.503365,87.932861 116.321762,85.634453 117.321968,83.442329 
	C116.879242,83.229240 116.436508,83.016144 115.993774,82.803055 
	C115.261559,83.620735 114.486923,84.404587 113.803795,85.261398 
	C108.104118,92.410202 103.152710,100.345970 96.576141,106.564301 
	C84.137703,118.325195 71.031204,129.451477 55.703545,137.511383 
	C45.470173,142.892502 34.949787,147.561066 23.171474,147.868042 
	C16.415485,148.044113 12.211599,142.174438 14.023811,135.673416 
	C14.780501,132.958923 15.679131,130.203308 17.027920,127.749268 
	C21.540834,119.538307 26.286196,111.455101 31.305172,102.689636 
	C34.712887,108.296181 37.205292,112.561279 39.863220,116.720612 
	C42.226566,120.418968 45.541363,121.392227 49.819866,120.202621 
	C61.399292,116.983070 70.960487,110.436661 79.236534,102.056023 
	C85.584808,95.627525 86.651360,88.158760 82.800125,80.999840 
	C79.346741,74.580475 74.309219,69.737816 66.838455,68.565346 
	C62.049313,67.813728 57.132744,67.874031 51.869553,67.545143 
	C70.918114,58.548561 86.995270,62.818630 101.204285,77.719276 
	C96.706207,67.845192 88.592384,62.469952 78.551506,58.113464 
	C85.211433,51.331543 91.337578,45.093185 97.463730,38.854824 
	C97.109589,38.465069 96.755447,38.075317 96.401306,37.685562 
	C95.559196,38.009979 94.591286,38.166092 93.895485,38.686230 
	C89.497566,41.973843 85.000931,45.157043 80.842262,48.730145 
	C75.522736,53.300655 70.358566,57.131550 62.711143,57.806526 
	C47.812756,59.121498 33.850334,71.423477 31.754515,88.427094 
	C31.344009,91.757568 29.950615,95.181923 28.225512,98.098663 
	C20.115606,111.810570 11.742044,125.366737 3.427140,138.956802 
	C2.755182,140.055069 1.815350,140.989456 0.999998,142.000000 
	C1.000000,95.084068 1.000000,48.168129 1.000000,1.000000 
	C35.353817,1.000000 69.708252,1.000000 104.531189,1.461567 
	C104.691711,6.726703 104.396317,11.531117 104.073074,16.333660 
	C103.417458,26.074593 102.561935,26.874872 92.738487,26.991253 
	C90.076805,27.022787 87.402100,26.884916 84.757263,27.108019 
	C82.728134,27.279184 80.736557,27.895443 78.728271,28.313749 
	C78.713577,28.741600 78.698875,29.169451 78.684174,29.597301 
	C80.335190,30.024841 81.968849,30.715734 83.640785,30.825909 
	C87.288353,31.066278 90.961899,30.895395 94.613144,31.100632 
	C102.559769,31.547316 103.542686,32.708012 104.067154,40.638584 
	C104.419235,45.962448 105.098572,51.264675 105.631485,56.576580 
	C107.283524,55.681091 107.974823,54.744736 108.063148,53.754593 
	C108.490448,48.964352 108.848137,44.163578 109.051865,39.358959 
	C109.247612,34.742764 111.002525,31.711622 116.059311,31.503111 
	C119.875313,31.345764 123.698730,31.253021 127.501259,30.926670 
	C129.814484,30.728138 132.094299,30.140522 134.389130,29.727684 
	C134.369293,29.209602 134.349472,28.691519 134.329651,28.173437 
	C132.484451,27.795528 130.652283,27.197090 128.791260,27.087290 
	C125.307632,26.881754 121.800163,27.087149 118.315407,26.892456 
	C111.241058,26.497219 109.596558,24.849483 109.099258,17.900970 
	C108.696259,12.269932 108.363770,6.633847 108.000000,1.000000 
	C238.879257,1.000000 369.758514,1.000000 501.000000,1.000000 
	C501.000000,28.019815 501.000000,55.041248 500.531342,82.531281 
	C487.067871,83.002762 474.073029,82.997757 461.078217,83.013817 
	C457.659607,83.018036 454.158600,82.840508 454.074707,87.849754 
	C453.985474,93.178894 457.662903,92.980072 461.274323,92.994209 
	C463.106903,93.001373 464.945648,93.112465 466.770813,93.000336 
	C471.242950,92.725594 473.110107,94.741539 473.024994,99.220558 
	C472.873077,107.214302 472.959869,115.213531 473.020172,123.209915 
	C473.047485,126.834450 472.382629,130.994812 478.138672,130.911987 
	C483.550842,130.834106 482.951447,126.891785 482.978119,123.432709 
	C483.041016,115.269753 483.103699,107.104866 482.988342,98.943275 
	C482.928131,94.683800 484.790588,92.858368 489.005859,92.994675 
	C492.999786,93.123833 497.001648,93.008064 501.000000,93.000000 
M392.338684,130.996719 
	C396.032745,130.931625 400.092010,131.442429 399.905914,125.736496 
	C399.729034,120.312874 395.712189,121.066719 392.306519,121.026352 
	C384.148132,120.929634 375.988129,120.976593 367.829224,120.910698 
	C363.942993,120.879311 362.127014,118.831688 362.082672,114.943558 
	C362.035187,110.782913 364.578461,110.000023 367.971008,110.006996 
	C374.298523,110.020012 380.626190,109.963051 386.953796,109.940979 
	C390.165802,109.929771 391.884064,108.505760 391.931152,105.117386 
	C391.981995,101.460304 390.130554,100.040062 386.695190,100.034157 
	C379.868530,100.022438 373.036224,100.081894 366.220428,99.785919 
	C364.944092,99.730499 363.733887,98.152817 362.493164,97.277626 
	C363.553192,95.974380 364.373993,94.217316 365.741089,93.496513 
	C367.087250,92.786774 368.986633,93.033157 370.644226,93.023239 
	C378.470551,92.976395 386.297302,92.958435 394.123718,92.987190 
	C397.584412,92.999901 399.951569,92.035233 399.929871,87.944595 
	C399.907928,83.801407 397.408661,83.001625 394.013275,83.013374 
	C384.521667,83.046227 375.027557,82.901970 365.538940,83.075058 
	C357.271149,83.225876 352.265106,88.310417 352.064301,96.612068 
	C351.907318,103.102615 351.918854,109.602089 352.050537,116.093636 
	C352.251495,126.000404 357.001526,130.770462 366.904297,130.947525 
	C375.061462,131.093384 383.222992,130.991547 392.338684,130.996719 
M240.836899,103.769989 
	C240.415604,100.440910 237.983597,100.052551 235.330414,100.035423 
	C228.834183,99.993469 222.327789,100.157066 215.848923,99.805893 
	C214.344147,99.724335 212.932877,97.917847 211.478577,96.905060 
	C212.829269,95.670204 213.999557,94.036118 215.584595,93.319916 
	C216.990463,92.684685 218.856888,93.018532 220.520340,93.012138 
	C228.016357,92.983322 235.512558,92.962402 243.008545,92.987244 
	C246.400848,92.998489 248.910004,92.209587 248.933243,88.060883 
	C248.956161,83.970924 246.592453,83.000008 243.128372,83.013458 
	C233.633530,83.050323 224.136429,82.909599 214.644119,83.070328 
	C206.593628,83.206657 201.520645,88.031136 201.157242,96.136803 
	C200.836807,103.284584 200.866455,110.466446 201.145752,117.617470 
	C201.416550,124.551003 207.033005,130.544434 213.858414,130.791626 
	C224.005707,131.159134 234.175323,130.930374 244.335388,130.913040 
	C247.736282,130.907242 248.966461,128.941223 248.922272,125.735474 
	C248.869400,121.900620 246.528748,121.029884 243.306580,121.021378 
	C234.312134,120.997635 225.316818,120.995163 216.323883,120.854263 
	C212.592331,120.795799 211.131241,118.487335 211.083389,114.934433 
	C211.032745,111.173538 213.150818,110.020767 216.481445,110.023834 
	C222.811249,110.029663 229.141312,109.939827 235.470825,109.973923 
	C239.158844,109.993782 241.161636,108.475426 240.836899,103.769989 
M187.226898,109.022903 
	C194.114670,104.556343 196.627136,98.592049 194.522415,91.704079 
	C192.895813,86.380783 187.313309,83.070694 179.695526,83.019279 
	C172.540253,82.970978 165.383820,82.961075 158.229233,83.046890 
	C156.564957,83.066849 154.906158,83.543198 152.250229,83.969017 
	C156.490341,89.361221 159.796707,93.619637 166.567688,93.073158 
	C171.192688,92.699875 175.897781,92.852196 180.524948,93.254265 
	C181.930511,93.376389 183.195663,95.114174 184.525131,96.111977 
	C183.226013,97.344162 182.113556,98.987442 180.572647,99.687157 
	C179.171188,100.323547 177.304398,99.979301 175.642258,99.989601 
	C169.485428,100.027748 163.328400,100.045906 157.171448,100.046814 
	C153.989731,100.047287 152.083221,101.401093 152.075180,104.771156 
	C152.058121,111.925972 152.053268,119.080917 152.076950,126.235703 
	C152.088028,129.583420 153.905762,130.955109 157.159637,130.923584 
	C160.559708,130.890656 161.939133,129.114212 161.949387,125.919518 
	C161.959000,122.924332 161.963242,119.928764 162.015274,116.934158 
	C162.124268,110.661812 164.437485,108.602280 170.412582,110.457329 
	C172.811340,111.202049 175.196350,113.412750 176.613220,115.590233 
	C179.230209,119.612083 180.907684,124.234627 183.391357,128.357010 
	C185.632401,132.076691 189.503952,131.387573 192.746384,130.208130 
	C193.333771,129.994476 193.062805,125.918701 192.338806,123.936058 
	C191.091171,120.519569 189.054626,117.399544 187.599899,114.046318 
	C186.994034,112.649796 187.031326,110.974243 187.226898,109.022903 
M276.612183,93.001564 
	C284.430328,92.981346 292.248535,92.965805 300.066650,92.938660 
	C303.330719,92.927330 304.918091,91.340019 304.919647,88.007973 
	C304.921173,84.683151 303.353241,83.061539 300.082092,83.064590 
	C289.603302,83.074356 279.118347,82.897308 268.648163,83.209511 
	C262.752930,83.385300 257.470734,87.948433 257.287567,93.259056 
	C256.903687,104.389435 257.089111,115.540970 257.129730,126.683495 
	C257.141266,129.855225 259.172211,130.927963 262.104248,130.921753 
	C265.116394,130.915390 266.850586,129.628372 266.913422,126.510277 
	C266.980408,123.184570 267.150726,119.849434 266.982605,116.533279 
	C266.747192,111.889275 268.635864,109.805946 273.402771,109.960846 
	C279.217865,110.149811 285.045135,109.960121 290.867126,109.944687 
	C294.034668,109.936279 295.857605,108.624115 295.925751,105.205315 
	C295.997559,101.603722 294.269409,100.033722 290.786041,100.041939 
	C285.795837,100.053719 280.788086,100.261269 275.821594,99.908913 
	C272.765381,99.692078 267.554169,101.806755 267.633362,96.406342 
	C267.703278,91.640076 272.639709,93.506233 276.612183,93.001564 
M417.225769,129.532486 
	C425.996826,130.008972 434.766266,130.518539 443.539764,130.945053 
	C446.881439,131.107483 448.920410,129.771164 448.931213,126.040749 
	C448.941925,122.350151 447.009583,121.023506 443.617828,121.032898 
	C438.291351,121.047630 432.963898,121.057945 427.638367,120.973495 
	C418.070770,120.821800 411.820679,115.391846 411.848083,107.343948 
	C411.879059,98.248138 417.290314,93.207123 427.339996,93.033234 
	C432.665253,92.941086 437.993134,93.003647 443.319824,92.992096 
	C446.222473,92.985802 449.099670,93.224678 449.047882,88.823593 
	C449.001495,84.881760 447.499939,82.949974 443.433380,83.009071 
	C437.275879,83.098557 431.115204,82.955841 424.957184,83.025414 
	C413.145691,83.158859 403.771332,91.065811 401.380371,102.813934 
	C399.241241,113.324364 405.826843,124.865685 417.225769,129.532486 
M308.996277,108.433067 
	C309.007507,110.097763 308.977478,111.763916 309.036591,113.426910 
	C309.436798,124.685722 315.727142,130.856293 327.004486,130.977051 
	C332.830353,131.039444 338.657654,130.954208 344.484192,130.970566 
	C347.787842,130.979828 349.946747,129.889328 349.905731,126.099174 
	C349.866302,122.449944 347.901062,121.071747 344.537994,121.059448 
	C339.044464,121.039368 333.549530,121.077019 328.057922,120.960335 
	C321.724823,120.825760 320.135040,119.246437 320.045502,112.850746 
	C319.931335,104.694786 319.940735,96.536392 319.974731,88.379372 
	C319.990540,84.585678 318.199463,83.012878 314.451385,83.017342 
	C310.647156,83.021873 308.988586,84.739319 309.017761,88.474205 
	C309.067230,94.799767 309.009003,101.126175 308.996277,108.433067 
M121.299248,55.869556 
	C119.298332,56.641941 117.297409,57.414330 115.296494,58.186714 
	C115.169472,58.658535 115.042442,59.130356 114.915421,59.602177 
	C122.045700,59.575497 124.691795,64.221184 126.734337,70.256844 
	C127.400299,63.503407 131.678268,60.597691 137.332413,58.198933 
	C130.275452,57.400482 127.823387,52.918621 127.080597,45.925919 
	C124.831238,50.151695 123.398773,52.842812 121.299248,55.869556 
z"/>
<path fill="#1E1E20" opacity="1.000000" stroke="none" 
	d="
M0.999998,142.468689 
	C1.815350,140.989456 2.755182,140.055069 3.427140,138.956802 
	C11.742044,125.366737 20.115606,111.810570 28.225512,98.098663 
	C29.950615,95.181923 31.344009,91.757568 31.754515,88.427094 
	C33.850334,71.423477 47.812756,59.121498 62.711143,57.806526 
	C70.358566,57.131550 75.522736,53.300655 80.842262,48.730145 
	C85.000931,45.157043 89.497566,41.973843 93.895485,38.686230 
	C94.591286,38.166092 95.559196,38.009979 96.401306,37.685562 
	C96.755447,38.075317 97.109589,38.465069 97.463730,38.854824 
	C91.337578,45.093185 85.211433,51.331543 78.551506,58.113464 
	C88.592384,62.469952 96.706207,67.845192 101.204285,77.719276 
	C86.995270,62.818630 70.918114,58.548561 51.869553,67.545143 
	C57.132744,67.874031 62.049313,67.813728 66.838455,68.565346 
	C74.309219,69.737816 79.346741,74.580475 82.800125,80.999840 
	C86.651360,88.158760 85.584808,95.627525 79.236534,102.056023 
	C70.960487,110.436661 61.399292,116.983070 49.819866,120.202621 
	C45.541363,121.392227 42.226566,120.418968 39.863220,116.720612 
	C37.205292,112.561279 34.712887,108.296181 31.305172,102.689636 
	C26.286196,111.455101 21.540834,119.538307 17.027920,127.749268 
	C15.679131,130.203308 14.780501,132.958923 14.023811,135.673416 
	C12.211599,142.174438 16.415485,148.044113 23.171474,147.868042 
	C34.949787,147.561066 45.470173,142.892502 55.703545,137.511383 
	C71.031204,129.451477 84.137703,118.325195 96.576141,106.564301 
	C103.152710,100.345970 108.104118,92.410202 113.803795,85.261398 
	C114.486923,84.404587 115.261559,83.620735 115.993774,82.803055 
	C116.436508,83.016144 116.879242,83.229240 117.321968,83.442329 
	C116.321762,85.634453 115.503365,87.932861 114.293526,90.002441 
	C100.453651,113.677376 81.878326,133.004181 59.441624,148.568619 
	C51.956436,153.761124 43.721500,157.871399 35.842640,162.499115 
	C34.295483,163.407867 32.809708,164.421127 31.147814,165.693085 
	C21.081753,166.000000 11.163507,166.000000 1.000000,166.000000 
	C1.000000,158.314194 1.000000,150.625778 0.999998,142.468689 
z"/>
<path fill="#1E1E20" opacity="1.000000" stroke="none" 
	d="
M501.000000,92.545898 
	C497.001648,93.008064 492.999786,93.123833 489.005859,92.994675 
	C484.790588,92.858368 482.928131,94.683800 482.988342,98.943275 
	C483.103699,107.104866 483.041016,115.269753 482.978119,123.432709 
	C482.951447,126.891785 483.550842,130.834106 478.138672,130.911987 
	C472.382629,130.994812 473.047485,126.834450 473.020172,123.209915 
	C472.959869,115.213531 472.873077,107.214302 473.024994,99.220558 
	C473.110107,94.741539 471.242950,92.725594 466.770813,93.000336 
	C464.945648,93.112465 463.106903,93.001373 461.274323,92.994209 
	C457.662903,92.980072 453.985474,93.178894 454.074707,87.849754 
	C454.158600,82.840508 457.659607,83.018036 461.078217,83.013817 
	C474.073029,82.997757 487.067871,83.002762 500.531342,82.999939 
	C501.000000,86.030594 501.000000,89.061188 501.000000,92.545898 
z"/>
<path fill="#1E1E20" opacity="1.000000" stroke="none" 
	d="
M107.625000,1.000000 
	C108.363770,6.633847 108.696259,12.269932 109.099258,17.900970 
	C109.596558,24.849483 111.241058,26.497219 118.315407,26.892456 
	C121.800163,27.087149 125.307632,26.881754 128.791260,27.087290 
	C130.652283,27.197090 132.484451,27.795528 134.329651,28.173437 
	C134.349472,28.691519 134.369293,29.209602 134.389130,29.727684 
	C132.094299,30.140522 129.814484,30.728138 127.501259,30.926670 
	C123.698730,31.253021 119.875313,31.345764 116.059311,31.503111 
	C111.002525,31.711622 109.247612,34.742764 109.051865,39.358959 
	C108.848137,44.163578 108.490448,48.964352 108.063148,53.754593 
	C107.974823,54.744736 107.283524,55.681091 105.631485,56.576580 
	C105.098572,51.264675 104.419235,45.962448 104.067154,40.638584 
	C103.542686,32.708012 102.559769,31.547316 94.613144,31.100632 
	C90.961899,30.895395 87.288353,31.066278 83.640785,30.825909 
	C81.968849,30.715734 80.335190,30.024841 78.684174,29.597301 
	C78.698875,29.169451 78.713577,28.741600 78.728271,28.313749 
	C80.736557,27.895443 82.728134,27.279184 84.757263,27.108019 
	C87.402100,26.884916 90.076805,27.022787 92.738487,26.991253 
	C102.561935,26.874872 103.417458,26.074593 104.073074,16.333660 
	C104.396317,11.531117 104.691711,6.726703 104.999847,1.461567 
	C105.750000,1.000000 106.500000,1.000000 107.625000,1.000000 
z"/>
<path fill="#1E1E20" opacity="1.000000" stroke="none" 
	d="
M391.860657,130.998108 
	C383.222992,130.991547 375.061462,131.093384 366.904297,130.947525 
	C357.001526,130.770462 352.251495,126.000404 352.050537,116.093636 
	C351.918854,109.602089 351.907318,103.102615 352.064301,96.612068 
	C352.265106,88.310417 357.271149,83.225876 365.538940,83.075058 
	C375.027557,82.901970 384.521667,83.046227 394.013275,83.013374 
	C397.408661,83.001625 399.907928,83.801407 399.929871,87.944595 
	C399.951569,92.035233 397.584412,92.999901 394.123718,92.987190 
	C386.297302,92.958435 378.470551,92.976395 370.644226,93.023239 
	C368.986633,93.033157 367.087250,92.786774 365.741089,93.496513 
	C364.373993,94.217316 363.553192,95.974380 362.493164,97.277634 
	C363.733887,98.152817 364.944092,99.730499 366.220428,99.785919 
	C373.036224,100.081894 379.868530,100.022438 386.695190,100.034157 
	C390.130554,100.040062 391.981995,101.460304 391.931152,105.117386 
	C391.884064,108.505760 390.165802,109.929771 386.953796,109.940979 
	C380.626190,109.963051 374.298523,110.020012 367.971008,110.006996 
	C364.578461,110.000023 362.035187,110.782913 362.082672,114.943558 
	C362.127014,118.831688 363.942993,120.879311 367.829224,120.910698 
	C375.988129,120.976593 384.148132,120.929634 392.306519,121.026352 
	C395.712189,121.066719 399.729034,120.312874 399.905914,125.736496 
	C400.092010,131.442429 396.032745,130.931625 391.860657,130.998108 
z"/>
<path fill="#1E1E20" opacity="1.000000" stroke="none" 
	d="
M240.865356,104.179703 
	C241.161636,108.475426 239.158844,109.993782 235.470825,109.973923 
	C229.141312,109.939827 222.811249,110.029663 216.481445,110.023834 
	C213.150818,110.020767 211.032745,111.173538 211.083389,114.934433 
	C211.131241,118.487335 212.592331,120.795799 216.323883,120.854263 
	C225.316818,120.995163 234.312134,120.997635 243.306580,121.021378 
	C246.528748,121.029884 248.869400,121.900620 248.922272,125.735474 
	C248.966461,128.941223 247.736282,130.907242 244.335388,130.913040 
	C234.175323,130.930374 224.005707,131.159134 213.858414,130.791626 
	C207.033005,130.544434 201.416550,124.551003 201.145752,117.617470 
	C200.866455,110.466446 200.836807,103.284584 201.157242,96.136803 
	C201.520645,88.031136 206.593628,83.206657 214.644119,83.070328 
	C224.136429,82.909599 233.633530,83.050323 243.128372,83.013458 
	C246.592453,83.000008 248.956161,83.970924 248.933243,88.060883 
	C248.910004,92.209587 246.400848,92.998489 243.008545,92.987244 
	C235.512558,92.962402 228.016357,92.983322 220.520340,93.012138 
	C218.856888,93.018532 216.990463,92.684685 215.584595,93.319916 
	C213.999557,94.036118 212.829269,95.670204 211.478577,96.905060 
	C212.932877,97.917847 214.344147,99.724335 215.848923,99.805893 
	C222.327789,100.157066 228.834183,99.993469 235.330414,100.035423 
	C237.983597,100.052551 240.415604,100.440910 240.865356,104.179703 
z"/>
<path fill="#1E1E20" opacity="1.000000" stroke="none" 
	d="
M187.001526,109.224236 
	C187.031326,110.974243 186.994034,112.649796 187.599899,114.046318 
	C189.054626,117.399544 191.091171,120.519569 192.338806,123.936058 
	C193.062805,125.918701 193.333771,129.994476 192.746384,130.208130 
	C189.503952,131.387573 185.632401,132.076691 183.391357,128.357010 
	C180.907684,124.234627 179.230209,119.612083 176.613220,115.590233 
	C175.196350,113.412750 172.811340,111.202049 170.412582,110.457329 
	C164.437485,108.602280 162.124268,110.661812 162.015274,116.934158 
	C161.963242,119.928764 161.959000,122.924332 161.949387,125.919518 
	C161.939133,129.114212 160.559708,130.890656 157.159637,130.923584 
	C153.905762,130.955109 152.088028,129.583420 152.076950,126.235703 
	C152.053268,119.080917 152.058121,111.925972 152.075180,104.771156 
	C152.083221,101.401093 153.989731,100.047287 157.171448,100.046814 
	C163.328400,100.045906 169.485428,100.027748 175.642258,99.989601 
	C177.304398,99.979301 179.171188,100.323547 180.572647,99.687157 
	C182.113556,98.987442 183.226013,97.344162 184.525131,96.111977 
	C183.195663,95.114174 181.930511,93.376389 180.524948,93.254265 
	C175.897781,92.852196 171.192688,92.699875 166.567688,93.073158 
	C159.796707,93.619637 156.490341,89.361221 152.250229,83.969017 
	C154.906158,83.543198 156.564957,83.066849 158.229233,83.046890 
	C165.383820,82.961075 172.540253,82.970978 179.695526,83.019279 
	C187.313309,83.070694 192.895813,86.380783 194.522415,91.704079 
	C196.627136,98.592049 194.114670,104.556343 187.001526,109.224236 
z"/>
<path fill="#1E1E20" opacity="1.000000" stroke="none" 
	d="
M276.134644,93.002441 
	C272.639709,93.506233 267.703278,91.640076 267.633362,96.406342 
	C267.554169,101.806755 272.765381,99.692078 275.821594,99.908913 
	C280.788086,100.261269 285.795837,100.053719 290.786041,100.041939 
	C294.269409,100.033722 295.997559,101.603722 295.925751,105.205315 
	C295.857605,108.624115 294.034668,109.936279 290.867126,109.944687 
	C285.045135,109.960121 279.217865,110.149811 273.402771,109.960846 
	C268.635864,109.805946 266.747192,111.889275 266.982605,116.533279 
	C267.150726,119.849434 266.980408,123.184570 266.913422,126.510277 
	C266.850586,129.628372 265.116394,130.915390 262.104248,130.921753 
	C259.172211,130.927963 257.141266,129.855225 257.129730,126.683495 
	C257.089111,115.540970 256.903687,104.389435 257.287567,93.259056 
	C257.470734,87.948433 262.752930,83.385300 268.648163,83.209511 
	C279.118347,82.897308 289.603302,83.074356 300.082092,83.064590 
	C303.353241,83.061539 304.921173,84.683151 304.919647,88.007973 
	C304.918091,91.340019 303.330719,92.927330 300.066650,92.938660 
	C292.248535,92.965805 284.430328,92.981346 276.134644,93.002441 
z"/>
<path fill="#1E1E20" opacity="1.000000" stroke="none" 
	d="
M416.850525,129.400238 
	C405.826843,124.865685 399.241241,113.324364 401.380371,102.813934 
	C403.771332,91.065811 413.145691,83.158859 424.957184,83.025414 
	C431.115204,82.955841 437.275879,83.098557 443.433380,83.009071 
	C447.499939,82.949974 449.001495,84.881760 449.047882,88.823593 
	C449.099670,93.224678 446.222473,92.985802 443.319824,92.992096 
	C437.993134,93.003647 432.665253,92.941086 427.339996,93.033234 
	C417.290314,93.207123 411.879059,98.248138 411.848083,107.343948 
	C411.820679,115.391846 418.070770,120.821800 427.638367,120.973495 
	C432.963898,121.057945 438.291351,121.047630 443.617828,121.032898 
	C447.009583,121.023506 448.941925,122.350151 448.931213,126.040749 
	C448.920410,129.771164 446.881439,131.107483 443.539764,130.945053 
	C434.766266,130.518539 425.996826,130.008972 416.850525,129.400238 
z"/>
<path fill="#1E1E20" opacity="1.000000" stroke="none" 
	d="
M308.996155,107.942642 
	C309.009003,101.126175 309.067230,94.799767 309.017761,88.474205 
	C308.988586,84.739319 310.647156,83.021873 314.451385,83.017342 
	C318.199463,83.012878 319.990540,84.585678 319.974731,88.379372 
	C319.940735,96.536392 319.931335,104.694786 320.045502,112.850746 
	C320.135040,119.246437 321.724823,120.825760 328.057922,120.960335 
	C333.549530,121.077019 339.044464,121.039368 344.537994,121.059448 
	C347.901062,121.071747 349.866302,122.449944 349.905731,126.099174 
	C349.946747,129.889328 347.787842,130.979828 344.484192,130.970566 
	C338.657654,130.954208 332.830353,131.039444 327.004486,130.977051 
	C315.727142,130.856293 309.436798,124.685722 309.036591,113.426910 
	C308.977478,111.763916 309.007507,110.097763 308.996155,107.942642 
z"/>
<path fill="#1E1E20" opacity="1.000000" stroke="none" 
	d="
M121.632782,55.701744 
	C123.398773,52.842812 124.831238,50.151695 127.080597,45.925919 
	C127.823387,52.918621 130.275452,57.400482 137.332413,58.198933 
	C131.678268,60.597691 127.400299,63.503407 126.734337,70.256844 
	C124.691795,64.221184 122.045700,59.575497 114.915421,59.602177 
	C115.042442,59.130356 115.169472,58.658535 115.296494,58.186714 
	C117.297409,57.414330 119.298332,56.641941 121.632782,55.701744 
z"/>
</svg>